<?xml version="1.0" encoding="UTF-8" standalone="no"?>
<!-- Created with Inkscape (http://www.inkscape.org/) -->

<svg
   xmlns:dc="http://purl.org/dc/elements/1.1/"
   xmlns:cc="http://creativecommons.org/ns#"
   xmlns:rdf="http://www.w3.org/1999/02/22-rdf-syntax-ns#"
   xmlns:svg="http://www.w3.org/2000/svg"
   xmlns="http://www.w3.org/2000/svg"
   xmlns:sodipodi="http://sodipodi.sourceforge.net/DTD/sodipodi-0.dtd"
   xmlns:inkscape="http://www.inkscape.org/namespaces/inkscape"
   id="svg2"
   version="1.1"
   inkscape:version="0.91 r13725"
   width="502.5"
   height="408.75"
   viewBox="0 0 502.5 408.75"
   sodipodi:docname="Shiite_Calligraphy_symbolising_Ali_as_Tiger_of_God.svg">
  <metadata
     id="metadata8">
    <rdf:RDF>
      <cc:Work
         rdf:about="">
        <dc:format>image/svg+xml</dc:format>
        <dc:type
           rdf:resource="http://purl.org/dc/dcmitype/StillImage" />
        <dc:title></dc:title>
      </cc:Work>
    </rdf:RDF>
  </metadata>
  <defs
     id="defs6" />
  <sodipodi:namedview
     pagecolor="#000"
     bordercolor="#fff"
     borderopacity="1"
     objecttolerance="10"
     gridtolerance="10"
     guidetolerance="10"
     inkscape:pageopacity="0"
     inkscape:pageshadow="2"
     inkscape:window-width="1536"
     inkscape:window-height="841"
     id="namedview4"
     showgrid="false"
     inkscape:zoom="1.6210687"
     inkscape:cx="4.5994037"
     inkscape:cy="244.64462"
     inkscape:window-x="-8"
     inkscape:window-y="-8"
     inkscape:window-maximized="1"
     inkscape:current-layer="svg2" />
  <path
     style="fill:#fff"
     d="m 40.928731,399.33915 c -9.332734,-6.34175 -10.378677,-14.2657 -3.477937,-26.34845 3.53359,-6.18708 6.809095,-9.40091 20.049206,-19.67174 6.647445,-5.15665 6.99052,-5.72392 10.365155,-17.13856 1.919585,-6.49298 4.586529,-17.0384 5.926541,-23.43428 2.134914,-10.18993 2.223044,-12.12335 0.712233,-15.625 -1.828791,-4.23865 -19.670173,-26.31723 -29.136356,-36.05605 -4.07749,-4.19492 -5.702937,-6.91652 -5.847495,-9.79085 -0.116213,-2.31071 -1.10642,-4.48807 -2.360144,-5.18968 -1.187964,-0.66483 -2.16349,-1.88394 -2.167838,-2.70915 -0.0044,-0.82521 -1.676442,-2.44977 -3.715768,-3.6101 -6.983207,-3.97334 -16.568304,-22.58934 -20.614889,-40.03788 -2.4385422,-10.51479 -3.8653894,-29.1448 -2.305974,-30.10857 0.6935254,-0.42863 2.076645,5.11733 3.289359,13.1895 1.150946,7.66101 2.610084,14.44657 3.24253,15.07901 0.699867,0.69987 1.985504,-0.46598 3.284988,-2.9789 1.174299,-2.27084 5.489211,-8.52632 9.588693,-13.90107 7.236001,-9.48697 10.527169,-11.45807 9.004959,-5.39309 -0.635648,2.53262 -0.365007,2.86217 1.870411,2.2776 4.265895,-1.11555 3.170816,2.47582 -3.383348,11.0959 -3.298318,4.33796 -7.346751,10.13721 -8.996517,12.88721 -4.531226,7.55311 -7.766665,8.7993 -6.568181,2.52984 0.443646,-2.32079 0.06886,-3.15484 -1.417638,-3.15484 -2.217897,0 -2.815467,4.36127 -0.770721,5.625 0.6875,0.4249 1.25,1.88039 1.25,3.23441 0,3.70724 7.146842,17.11363 9.912059,18.59353 5.777007,3.09176 12.926974,0.1834 8.09141,-3.2913 C 31.162466,221.39409 30,219.81921 30,216.26224 c 0,-4.75674 2.753959,-4.96579 6.872604,-0.5217 3.772932,4.07106 7.364806,14.6473 6.349005,18.69457 -0.525378,2.09326 -0.246387,3.06489 0.880055,3.06489 2.479035,0 15.415469,-11.97274 19.761304,-18.28919 l 3.817777,-5.54895 -7.902873,0.80674 c -7.047532,0.71942 -8.162494,0.51917 -10.301638,-1.8503 -2.862169,-3.17034 -4.071159,-14.12498 -2.116858,-19.1808 1.930347,-4.99385 8.349264,-4.81908 13.31354,0.36251 4.843708,5.05574 8.558085,4.58241 9.106683,-1.16047 0.222529,-2.32952 0.07119,-5.56389 -0.336315,-7.1875 C 68.621501,182.1778 66.25,181.40706 66.25,184.41423 c 0,2.79938 -3.261693,3.59133 -7.52245,1.82647 -3.273049,-1.35574 -3.73266,-2.17326 -3.769462,-6.70485 l -0.04191,-5.16085 -3.82933,4.6875 c -4.452103,5.44984 -7.336844,6.07064 -7.336844,1.57889 0,-2.10124 3.06812,-6.55705 9.46779,-13.75 5.207284,-5.85276 9.988534,-10.64139 10.625,-10.64139 2.53068,0 0.924815,4.8215 -3.21779,9.66121 -2.40625,2.81116 -4.375,5.34198 -4.375,5.62403 0,0.28206 2.8125,1.2787 6.25,2.21476 5.08715,1.38527 6.25,2.21291 6.25,4.44831 0,3.14909 3.1806,11.30224 4.799361,12.30269 0.597982,0.36957 2.363685,-0.68676 3.923786,-2.34741 l 2.836547,-3.01938 -4.529846,-5.2921 C 72.944991,176.53022 71.25,173.25861 71.25,171.09877 c 0,-3.98455 2.153709,-5.95566 3.285305,-3.00677 1.199391,3.12556 7.673094,5.92069 11.676316,5.04143 5.213719,-1.14513 7.177763,-4.18458 7.794604,-12.06254 0.791882,-10.1135 6.338575,-20.5722 13.826495,-26.07089 9.33844,-6.8576 12.08668,-15.98086 10.90256,-36.192926 -0.30607,-5.224525 0.0319,-5.879821 5.47943,-10.625 l 5.80563,-5.057074 -0.01,-11.644676 c -0.0146,-16.733748 -2.76074,-20.789997 -7.62281,-11.259542 -1.4649,2.871431 -5.45595,8.173448 -8.86902,11.782261 -5.40618,5.716237 -6.02682,6.895471 -4.81798,9.154217 1.624,3.034784 2.14282,3.093895 6.29947,0.71774 6.51202,-3.722609 6.81559,-1.062643 0.65672,5.754485 -5.3392,5.909864 -6.42792,9.867255 -4.49212,16.328395 1.64469,5.48948 0.68495,12.69685 -1.59096,11.94771 -0.81371,-0.26784 -1.72258,-4.10574 -2.07364,-8.75642 -0.73924,-9.792921 -2.50302,-12.415145 -6.13805,-9.125485 -2.127429,1.925297 -2.417061,3.709565 -2.217035,13.657965 0.260104,12.93633 -2.13049,19.95411 -7.654745,22.47114 l -3.113949,1.4188 2.999389,0.70083 c 2.232803,0.5217 3.095574,1.67392 3.375721,4.50817 0.206983,2.09405 -0.370371,4.42706 -1.283007,5.18447 -0.912638,0.75743 -6.958475,2.23013 -13.435196,3.27268 -11.884418,1.91302 -15.323129,3.30892 -35.135179,14.26268 -13.123765,7.25593 -19.269976,7.95237 -28.689824,3.2509 C 9.4099975,163.35837 8.8356536,162.72278 7.2837007,156.875 6.3022821,153.177 5.6726252,144.50019 5.7416369,135.625 5.9792342,105.06894 16.747736,77.112035 39.482234,48.028521 50.330429,34.150774 50.847905,33.247959 52.577932,25.181117 54.030404,18.408476 58.759256,12.5 62.727272,12.5 c 2.471122,0 6.518646,3.516804 9.772728,8.491304 1.432071,2.189201 3.188241,2.927416 7.434192,3.125 L 85.493385,24.375 88.059193,16.98899 C 92.088999,5.3886707 96.582505,4.469873 101.875,14.16404 c 2.88416,5.282865 4.03892,5.728012 4.60056,1.77346 0.32528,-2.290365 1.31722,-2.887359 5.34311,-3.215729 6.4137,-0.523131 15.35148,2.009699 17.39697,4.930034 2.26965,3.240387 1.0453,10.014007 -1.95174,10.797749 -1.43321,0.374796 -2.13265,1.339495 -1.73068,2.387041 0.92479,2.409957 -2.62739,3.556325 -4.97712,1.606226 -1.44826,-1.201954 -2.26305,-1.235875 -3.35908,-0.139844 -2.33595,2.335954 -5.94702,1.741374 -5.94702,-0.979206 0,-1.334426 0.65867,-2.83331 1.46371,-3.330852 0.95729,-0.591638 0.4515,-1.279066 -1.46189,-1.986876 -1.60909,-0.595239 -3.35033,-0.64323 -3.86944,-0.10665 -0.86199,0.891017 0.41958,11.115012 1.52134,12.136767 0.2592,0.240384 4.942,0.63996 10.40621,0.887949 l 9.93492,0.450891 2.70951,-7.84086 c 3.12574,-9.045381 6.03441,-12.78414 9.9458,-12.78414 4.07945,0 8.91106,4.368645 9.81163,8.871462 0.77667,3.88338 0.8763,3.932507 6.10138,3.008715 7.70377,-1.362018 9.39815,-1.122636 18.81893,2.658718 14.1596,5.683442 19.47654,14.466105 12.79971,21.142924 -5.51034,5.510337 -10.5627,3.887371 -17.36239,-5.577307 -6.04146,-8.409275 -10.38262,-9.611261 -22.04725,-6.104475 -9.14772,2.75012 -12.98655,2.379477 -12.26035,-1.183757 0.33602,-1.648746 1.59683,-2.15598 5.09238,-2.048701 4.05995,0.124599 4.6458,-0.22113 4.6458,-2.74162 C 147.5,33.645006 143.29925,30 139.69092,30 136.93546,30 135,34.693616 135,41.375796 c 0,4.743063 0.26317,5.071824 5.9375,7.417131 8.80146,3.637818 9.65206,4.290608 10.06663,7.725613 0.20851,1.727761 1.99469,4.689216 3.96931,6.581011 l 3.5902,3.439626 5.40567,-3.87096 c 7.88868,-5.649005 12.15948,-6.160616 17.05317,-2.042846 2.45472,2.065515 3.97752,4.506384 3.97752,6.375518 0,2.790502 -0.36859,2.973783 -4.6875,2.33084 -9.23513,-1.374808 -17.40341,7.512803 -15.49239,16.856685 0.47803,2.33732 1.46969,4.449851 2.20368,4.694513 0.73397,0.244663 5.26766,-3.695733 10.07482,-8.756436 4.80718,-5.060702 9.69623,-9.568094 10.86456,-10.016427 1.9457,-0.746634 1.96298,-1.12702 0.20554,-4.525533 -2.69035,-5.202559 -2.32587,-7.548116 0.62288,-4.008551 5.90842,7.09223 1.67631,21.680759 -9.62368,33.173832 -8.95949,9.112578 -17.37036,10.356768 -34.1595,5.053078 -10.24809,-3.23737 -18.7891,-3.649774 -19.67525,-0.95002 -0.81086,2.47041 4.20325,4.22318 16.28309,5.69204 10.39325,1.26378 11.90251,1.78982 15.57125,5.42725 2.97695,2.95155 4.06125,5.1468 4.05782,8.21534 -0.006,5.39061 -3.85208,11.6571 -8.69004,14.15891 -8.47299,4.38155 -0.94195,5.99433 11.28034,2.41569 17.26727,-5.05577 32.59979,-15.3031 79.51019,-53.139739 C 258.34936,71.520909 275.96875,57.947545 282.5,53.45933 312.1715,33.069351 337.23799,23.323829 373.50571,18.077501 388.65765,15.88569 399.58596,16.571526 417.5,20.838484 c 11.43754,2.724315 29.1939,11.648938 38.65977,19.430991 28.76302,23.646574 45.41545,71.120225 38.27119,109.105525 -5.95729,31.67424 -25.08887,63.27638 -47.80395,78.964 -6.42067,4.43429 -6.55012,4.65304 -10.88082,18.38684 -4.48924,14.23655 -13.55665,31.30585 -21.65732,40.76965 C 409.90206,292.38682 398.90086,298.75 394.63109,298.75 391.1384,298.75 385,291.61914 385,287.56175 c 0,-1.88311 1.82812,-7.02675 4.0625,-11.4303 3.52891,-6.95485 4.98427,-8.49899 11.08049,-11.75645 9.34525,-4.99355 11.06045,-6.56595 13.61581,-12.4823 2.95641,-6.84487 6.96183,-10.35183 9.75187,-8.53828 2.99175,1.94466 2.09472,6.25104 -2.35868,11.32318 -4.56576,5.20012 -6.15199,9.01067 -6.15199,14.77877 0,5.9162 -2.29213,5.40885 -3.27288,-0.72443 -0.61916,-3.87199 -1.16549,-4.71675 -2.39213,-3.69874 -0.87434,0.72564 -1.9402,2.71584 -2.36859,4.42265 -0.56759,2.26147 -2.6616,3.93594 -7.71931,6.17269 -5.14621,2.27591 -6.8307,3.63916 -6.51598,5.27341 0.58396,3.03224 6.42445,5.60762 10.43455,4.60115 8.19038,-2.05565 24.42455,-24.95624 24.705,-34.84986 0.0606,-2.14073 -1.9029,-8.36659 -4.36351,-13.83524 -2.46061,-5.46865 -4.96884,-11.24274 -5.57383,-12.83129 -0.84398,-2.2161 -1.11156,-1.19789 -1.14973,4.375 -0.0928,13.54333 -8.50353,24.71215 -26.54412,35.24843 -9.15696,5.34795 -10.44558,6.81362 -7.11447,8.0919 2.56441,0.98405 2.40954,8.13545 -0.23959,11.0627 -1.9861,2.19462 -1.9861,2.55407 0,5.91628 2.58069,4.36875 2.77959,14.80772 0.39107,20.52425 -2.11552,5.06313 -7.58117,9.54473 -11.64052,9.54473 -1.7755,0 -4.45726,-1.56606 -6.48671,-3.78801 l -3.45981,-3.78803 -4.80214,3.81626 c -8.86575,7.04562 -15.87322,6.47269 -19.83251,-1.62148 -1.97434,-4.03625 -2.11409,-5.56189 -0.9375,-10.23455 0.7605,-3.02019 1.38821,-7.35153 1.39492,-9.62521 0.0139,-4.6875 4.79249,-15.76752 7.91387,-18.34953 1.14066,-0.94356 2.07392,-2.5669 2.07392,-3.60741 0,-1.53151 -1.10461,-1.74044 -5.79946,-1.09694 -3.18971,0.43719 -6.5749,0.7949 -7.52264,0.7949 -0.94775,0 -3.72622,4.21997 -6.1744,9.37771 -8.3692,17.63199 -17.11184,22.22473 -27.20037,14.28908 -3.36069,-2.64353 -7.73062,-9.65598 -6.67505,-10.71153 0.30932,-0.30932 2.54967,0.38525 4.97855,1.5435 4.77866,2.27879 8.39337,1.7104 8.39337,-1.3198 0,-1.21612 -0.9938,-1.79236 -2.76242,-1.60172 -2.09433,0.22575 -3.30599,-0.83594 -5.00984,-4.38974 -2.23244,-4.65626 -2.29806,-4.6875 -9.84743,-4.6875 -6.09162,0 -10.49328,1.14326 -22.17766,5.76031 -19.28317,7.61969 -21.27804,8.73375 -22.19734,12.39653 -0.89142,3.55174 2.27005,9.34316 5.10033,9.34316 1.02755,0 2.35201,-2.05745 3.09091,-4.8015 1.4116,-5.2423 5.36825,-9.67402 7.47469,-8.37217 2.06475,1.27608 1.59636,4.90567 -1.79624,13.91896 -6.10833,16.22831 -2.9351,26.75471 8.06531,26.75471 5.59634,0 6.69656,-1.93954 2.09308,-3.68978 -1.63164,-0.62035 -3.32737,-2.56527 -3.76829,-4.32206 -2.88091,-11.47845 9.62502,-30.84804 15.87908,-24.59398 2.56969,2.5697 3.30579,1.33981 2.54038,-4.24451 -0.61065,-4.45521 -0.35939,-5.75698 1.22885,-6.36644 2.93156,-1.12496 16.61103,13.21442 18.44461,19.33442 2.50147,8.34911 -1.75537,16.12892 -10.57292,19.3232 -1.80024,0.65215 -2.17623,1.66605 -1.63021,4.39611 0.39321,1.96601 0.071,4.18719 -0.7226,4.98075 -2.2844,2.2844 -6.10378,1.67151 -6.82739,-1.09557 -0.59663,-2.28148 -1.25011,-1.97688 -6.70443,3.125 -5.79303,5.4187 -8.20032,6.36197 -14.7407,5.77601 -8.16052,-0.73111 -13.0513,-9.13976 -11.34085,-19.49815 1.81623,-10.99893 1.83284,-10.95486 -3.77353,-10.00766 -4.2545,0.71878 -5.40262,0.38907 -8.125,-2.33332 -2.41205,-2.41205 -3.16928,-4.4547 -3.16572,-8.53971 0.009,-10.37935 7.02464,-17.13545 23.12033,-22.26511 12.05564,-3.8421 13.19457,-5.43714 3.125,-4.37643 -9.71508,1.02338 -21.69209,3.91524 -26.48896,6.3958 -3.84556,1.98862 -4.36584,3.57324 -5.16159,15.72083 -0.61501,9.38851 -3.54436,14.77439 -9.79325,18.00581 -3.39175,1.75395 -4.03184,1.75066 -6.7566,-0.0346 -4.02732,-2.6388 -4.71328,-6.14353 -3.25791,-16.64562 3.16328,-22.82668 19.51478,-41.23905 41.77152,-47.0362 3.85059,-1.00295 14.91435,-2.22522 24.58615,-2.71617 12.69818,-0.64458 17.98999,-1.38053 19.0421,-2.64825 2.25219,-2.71371 1.84833,-15.04106 -0.82612,-25.21694 l -2.41735,-9.19765 4.026,-3.59724 c 4.447,-3.97338 4.87957,-5.73733 2.27906,-9.29373 -1.644,-2.24832 -2.4382,-1.69157 -13.47804,9.44858 -12.84536,12.96207 -27.18736,25.86044 -35.23687,31.69 -2.83973,2.05657 -9.99132,7.75724 -15.89243,12.66815 C 217.74126,266.17146 187.64741,285 181.98441,285 c -2.52679,0 -3.8084,2.42601 -2.15504,4.07937 0.98208,0.98208 2.03199,0.75483 3.76699,-0.81533 1.51768,-1.37348 2.70041,-1.69963 3.20468,-0.88372 1.1247,1.8198 8.19896,27.25598 8.19896,29.48014 0,1.00879 -1.36036,4.79974 -3.02304,8.42435 -2.45319,5.34793 -7.67364,25.41199 -10.22707,39.30635 C 181.16221,367.78899 175.38241,375 173.40695,375 c -0.75395,0 -2.64408,-1.19616 -4.20029,-2.65814 -3.55262,-3.33752 -6.22345,-2.38751 -7.31969,2.60363 -1.79273,8.16227 -10.95703,14.59822 -16.42751,11.53678 -1.17482,-0.65745 -3.02527,-3.07865 -4.11212,-5.38042 -1.603,-3.3949 -2.90047,-4.3353 -6.8721,-4.98088 -6.14424,-0.99871 -8.22855,-3.80233 -8.21303,-11.04738 0.0194,-9.05434 4.5687,-17.14898 14.09299,-25.07589 4.54171,-3.77999 8.58381,-7.78191 8.98245,-8.89319 0.39864,-1.11126 -1.258,-6.1579 -3.68143,-11.21474 -4.74237,-9.89568 -5.48636,-14.93723 -2.56238,-17.36391 1.51996,-1.26146 2.10413,-0.95899 3.32565,1.72194 1.79208,3.9332 2.50276,4.01495 5.55768,0.6393 2.32042,-2.56403 2.31957,-2.64585 -0.0451,-4.375 -3.27551,-2.39511 -13.19044,-2.2421 -16.76076,0.25865 -4.25955,2.98351 -7.50422,11.69552 -10.8793,29.21127 -1.97049,10.22627 -3.91924,16.84049 -5.6524,19.18472 -1.92695,2.60633 -2.27103,3.95177 -1.26732,4.95547 2.30076,2.30078 1.62092,4.61163 -4.45497,15.14293 C 106.70114,380.0395 102.87056,385 100.76656,385 c -0.7137,0 -2.481978,-1.48529 -3.92949,-3.30065 l -2.631841,-3.30064 -4.673136,5.70295 C 84.253814,390.5431 79.910196,392.5 70.890759,392.5 c -5.538153,0 -6.843343,0.55966 -11.660541,5 -6.557666,6.04465 -11.39689,6.53095 -18.301487,1.83915 z M 55,389.05069 c 0,-0.52213 -1.125,-1.6519 -2.5,-2.5106 -4.544631,-2.83817 -1.871424,-12.21659 4.281255,-15.01994 2.065326,-0.94103 3.228583,-2.484 3.246198,-4.30585 0.03566,-3.68895 3.99702,-12.35989 6.64945,-14.55485 1.140203,-0.94356 2.073097,-2.20919 2.073097,-2.8125 0,-2.5855 -3.565666,-0.63935 -9.682175,5.28456 -5.364921,5.19599 -6.419864,6.89779 -5.80199,9.35959 0.600163,2.39124 0.265493,3.0089 -1.630325,3.0089 -1.31203,0 -3.098121,-0.70313 -3.969091,-1.5625 -2.469338,-2.43646 -8.916419,5.36435 -8.916419,10.78865 0,4.60975 3.812866,10.36298 7.985146,12.04876 C 50.0877,390.1295 55,390.2934 55,389.05069 Z m 18.165149,-3.3619 c 2.384167,-0.99618 4.346161,-2.2618 4.359985,-2.8125 0.01383,-0.55072 0.538969,-4.55489 1.166989,-8.89819 1.259356,-8.70951 3.080103,-11.87755 6.248386,-10.87199 1.479222,0.46949 2.696812,-0.61506 4.178299,-3.72177 C 91.048439,355.33786 95,353.27361 95,356.31208 c 0,2.76412 -3.830249,8.54492 -6.149416,9.28099 -1.434894,0.45542 -2.779342,2.40759 -3.289258,4.77609 -0.474331,2.20322 -1.65287,5.55271 -2.618974,7.44334 -2.129429,4.1672 -1.241296,4.3072 4.101189,0.64648 5.017359,-3.43795 8.650678,-9.78832 9.846,-17.20898 1.053137,-6.53795 3.822439,-12.5 5.806109,-12.5 0.91392,0 1.09418,1.58644 0.53263,4.6875 -0.46686,2.57813 -1.18628,7.97916 -1.59871,12.00231 -0.68818,6.71298 -0.55467,7.27778 1.62278,6.8646 1.79299,-0.34021 2.44596,-1.66921 2.67272,-5.43981 0.16504,-2.74427 0.95745,-7.9404 1.76091,-11.54694 1.24028,-5.56735 1.16932,-6.88837 -0.47007,-8.75 C 100.96039,339.46414 94.691601,318.75 98.797354,318.75 c 0.90507,0 3.133586,-1.7824 4.952266,-3.96087 3.74768,-4.48912 6.84884,-4.02596 5.03242,0.75159 -1.39962,3.68129 -0.43339,4.76203 2.73937,3.06403 3.61663,-1.93556 4.11852,-0.50201 2.0999,5.99807 -1.74065,5.60505 -4.87131,8.83133 -4.87131,5.0201 0,-1.67063 -5.00164,-5.87292 -6.99006,-5.87292 -1.40773,0 0.27095,12.3036 1.95564,14.33352 2.36129,2.84518 7.03324,2.32295 9.71463,-1.08588 1.29892,-1.65132 3.09368,-6.29194 3.98837,-10.3125 4.3706,-19.64075 5.66901,-24.08173 8.95854,-30.64093 2.41599,-4.81736 5.24365,-8.21749 8.84594,-10.63681 2.99033,-2.00834 5.62416,-4.911 6.05154,-6.66923 0.81411,-3.34921 0.19875,-3.27443 14.0379,-1.7057 5.94837,0.67429 7.1875,0.48795 7.1875,-1.08081 0,-1.04255 -0.87691,-2.62332 -1.94869,-3.51281 -1.41574,-1.17496 -1.7393,-2.85659 -1.18309,-6.14878 0.61787,-3.65706 0.2446,-5.00268 -1.93432,-6.97328 C 154.52407,256.68518 150,248.59384 150,246.02123 c 0,-0.86812 1.65579,0.23448 3.67954,2.45019 3.20237,3.50615 4.48673,4.02858 9.90408,4.02858 4.88449,0 7.0586,-0.7018 10.09865,-3.25982 7.15449,-6.02012 7.2425,-7.53264 0.7976,-13.70793 -3.15143,-3.0196 -5.72987,-6.06215 -5.72987,-6.76123 0,-2.58577 2.49278,-1.13342 6.4003,3.72898 2.20996,2.75 4.47202,5 5.0268,5 2.89254,0 9.20724,-20.70108 7.27059,-23.83465 -0.78334,-1.26746 -2.10053,-0.87969 -5.8588,1.7248 -9.21504,6.38602 -17.67808,3.20134 -20.27651,-7.63015 -1.0663,-4.44483 -1.07897,-6.96119 -0.0486,-9.67111 1.73325,-4.55879 3.24904,-5.54553 8.55598,-5.56975 l 4.19468,-0.0191 -4.19468,-3.94347 c -5.39795,-5.07467 -3.16975,-5.91598 5.81048,-2.19386 3.76154,1.55906 7.23043,2.44338 7.70865,1.96516 1.26573,-1.26573 -0.8322,-2.82414 -6.0408,-4.48729 -2.51733,-0.8038 -4.91925,-2.35344 -5.3376,-3.44363 -0.78451,-2.04441 0.39615,-2.00466 10.85207,0.36537 2.09567,0.47502 3.4375,0.25646 3.4375,-0.55991 0,-0.73651 -1.97497,-1.70959 -4.38882,-2.16243 -5.00467,-0.93889 -6.22267,-2.24677 -4.92386,-5.2873 0.49988,-1.1702 0.79256,-3.90127 0.65043,-6.06905 -0.21039,-3.20867 0.4546,-4.36263 3.57691,-6.20701 3.30678,-1.9534 3.83531,-2.98519 3.83531,-7.48737 0,-5.76839 1.17885,-6.73922 8.18325,-6.73922 4.62541,0 6.81675,2.54556 6.81675,7.91865 0,2.52822 -0.8435,3.28647 -4.6875,4.21375 -4.54686,1.09682 -4.67627,1.28195 -4.3135,6.17007 0.25171,3.3915 -0.25921,5.56485 -1.5625,6.64648 -2.61519,2.17043 -2.43837,3.61892 0.75768,6.20694 2.4168,1.957 2.54297,2.61538 1.22551,6.39465 -3.01258,8.64189 -4.79616,10.22112 -10.57295,9.3616 l -5.22174,-0.77695 4.75554,3.98324 c 10.02767,8.39916 14.35187,24.06255 10.39789,37.66381 C 187.72644,244.5307 187.87441,245 194.23653,245 c 11.46999,0 14.08468,-7.63626 10.1318,-29.59016 -1.526,-8.47521 -1.95334,-14.99381 -1.40682,-21.4592 0.68332,-8.08365 0.4457,-9.8352 -1.83482,-13.52518 -3.49089,-5.64836 -2.44174,-7.92546 3.65155,-7.92546 3.42275,0 5.83326,-0.90504 8.16423,-3.06531 3.97349,-3.68251 4.03983,-4.41658 0.77427,-8.56805 -1.39329,-1.77129 -3.40809,-5.31429 -4.47733,-7.87334 -1.06924,-2.55904 -4.54444,-7.60221 -7.72267,-11.20706 l -5.77862,-6.55425 -11.11905,5.58432 -11.11903,5.58432 0.80985,4.31692 c 0.70805,3.77423 0.19076,5.06117 -4.11482,10.23719 -10.88613,13.08693 -16.00845,29.80616 -23.99787,78.32905 -7.97825,48.455 -28.87759,71.47431 -60.5722,66.7165 -1.555683,-0.23354 -2.5,0.33295 -2.5,1.49971 0,1.30952 1.319445,1.875 4.375,1.875 4.209839,0 4.43356,0.23595 5.926209,6.25 2.89928,11.68154 3.266661,20.9618 1.121886,28.33956 -2.544428,8.75253 -5.803254,12.8678 -12.554834,15.85435 -4.263004,1.88573 -5.531771,3.18614 -6.156566,6.31011 C 74.680206,371.91147 69.79131,376.25 64.431819,376.25 61.994319,376.25 60,376.50569 60,376.81819 c 0,0.3125 1.40625,1.97442 3.125,3.69317 1.71875,1.71875 3.125,3.99433 3.125,5.05683 0,2.4013 1.39829,2.42568 6.915149,0.12062 z M 146.5625,269.96105 c -3.31141,-1.33103 -3.42726,-2.32001 -0.96274,-8.21845 1.56359,-3.74221 2.28877,-4.2966 4.6875,-3.58363 5.59177,1.66206 6.9836,6.74516 3.1567,11.52853 -1.43914,1.79881 -2.93851,1.85841 -6.88146,0.27355 z m 13.4238,-29.02355 c -2.02435,-3.32018 -2.47781,-6.30621 -2.48162,-16.34165 -0.004,-11.00255 0.22176,-12.23555 2.17331,-11.85973 2.70038,0.52005 5.30399,5.74484 5.60186,11.24155 0.5055,9.32817 -0.35574,21.02233 -1.54823,21.02233 -0.69759,0 -2.383,-1.82813 -3.74532,-4.0625 z m 34.55109,-4.30377 c -0.37198,-1.24231 -0.2586,-4.22748 0.25193,-6.63373 1.11167,-5.2395 4.81688,-6.38824 8.27608,-2.56586 1.86274,2.0583 2.08076,3.32213 1.1416,6.61752 -0.95303,3.34406 -1.862,4.14204 -5.07709,4.45706 -2.90352,0.2845 -4.09111,-0.20035 -4.59252,-1.875 z m 5.15011,-68.01808 c -2.67591,-1.51671 -2.891,-4.86565 -0.3125,-4.86565 1.06268,0 1.875,-1.12078 1.875,-2.58694 0,-1.96777 0.67315,-2.49134 2.8125,-2.1875 2.17265,0.30857 2.8125,1.21788 2.8125,3.99698 0,4.42463 -3.91466,7.49815 -7.1875,5.64311 z m -44.39473,202.71792 c 4.82257,-4.33135 3.70029,-6.56617 -2.45142,-4.88161 -4.09755,1.12207 -7.32683,5.09674 -5.95039,7.32388 1.33345,2.15755 4.21198,1.32082 8.40181,-2.44226 z m -9.87651,-12.71632 c 1.9477,-2.13893 5.03945,-4.28964 6.87056,-4.77935 2.90317,-0.77643 3.45302,-1.75011 4.29594,-7.60729 0.7476,-5.19474 0.55466,-7.1289 -0.85137,-8.53494 -1.5907,-1.59069 -2.2345,-1.13048 -5.14884,3.68065 -1.83195,3.02428 -5.86673,7.43896 -8.96618,9.81042 -6.48321,4.96045 -9.72095,9.32376 -8.44752,11.38422 1.50569,2.43624 8.47846,0.18529 12.24741,-3.95371 z m 30.83374,0.63577 c 0,-2.46011 -6.2415,-3.7802 -7.61085,-1.60971 -0.71274,1.12973 -0.42864,2.22888 0.81726,3.16198 2.36223,1.76913 6.79359,0.75662 6.79359,-1.55227 z M 166.2246,348.7998 c 3.35905,-6.58429 3.20244,-7.5498 -1.2246,-7.5498 -3.58974,0 -3.75,0.23149 -3.75,5.41666 0,4.72005 0.68661,7.08334 2.05792,7.08334 0.2152,0 1.52771,-2.22759 2.91668,-4.9502 z m -86.718634,-1.1757 c 4.934694,-3.00911 8.735449,-9.15194 10.480509,-16.93875 C 91.957058,321.89221 90.730288,317.5 86.303736,317.5 c -3.707591,0 -5.523944,1.54665 -6.605869,5.625 -0.364767,1.375 -2.131693,7.47852 -3.926502,13.5634 -4.083074,13.84269 -3.557317,15.3822 3.734601,10.9357 z M 183.75,331.34591 c 0,-7.42352 0.4475,-9.18592 3.14706,-12.39416 l 3.14705,-3.74006 -2.61186,-6.98085 c -1.43654,-3.83946 -3.11228,-6.98084 -3.72388,-6.98084 -0.61161,0 -1.71787,2.25 -2.45837,5 -1.70589,6.3352 -4.07553,6.55515 -3.53907,0.3285 0.29648,-3.44124 -0.10675,-4.76956 -1.53112,-5.04388 -1.99832,-0.38483 -12.46485,6.51203 -12.38451,8.16072 0.0249,0.51131 2.40823,2.05466 5.29625,3.42966 6.55818,3.12237 9.02048,9.66654 6.85181,18.21039 -1.17484,4.62854 -1.05453,5.49186 0.97181,6.97356 1.27195,0.93007 3.33014,1.69105 4.57374,1.69105 1.96373,0 2.26109,-1.13814 2.26109,-8.65409 z m -15.01228,-4.45612 c 2.10731,-2.53914 -1.01352,-3.69458 -6.9639,-2.57828 -3.70128,0.69436 -4.20379,1.14171 -2.96252,2.63734 1.94989,2.34949 7.95718,2.31374 9.92642,-0.0591 z M 281.25,311.89881 c 0,-2.17664 -5.29051,-3.78821 -8.4347,-2.56935 -2.04288,0.79194 -2.02698,0.96929 0.23611,2.63482 3.20525,2.35891 8.19859,2.31905 8.19859,-0.0655 z m 14.68459,-0.32758 c 0.44063,-1.32189 -8.34279,-12.0797 -9.17953,-11.24295 -0.77375,0.77375 3.46562,11.53603 4.90413,12.44988 1.8193,1.15576 3.66115,0.63581 4.2754,-1.20693 z m 60.94041,-6.54705 c 2.0625,-1.35657 4.94661,-3.34601 6.40915,-4.42098 2.53039,-1.85985 2.78784,-1.73638 5.31687,2.55003 2.30225,3.90201 3.20053,4.45217 6.71585,4.11314 3.25669,-0.31408 3.98114,-0.88509 3.66827,-2.89137 -0.21442,-1.375 -0.59747,-5.8178 -0.8512,-9.8729 -0.25374,-4.05509 -1.1106,-7.77415 -1.90414,-8.26459 -1.0615,-0.65604 -1.09325,-2.15762 -0.12012,-5.68181 1.59767,-5.78634 1.17213,-6.42014 -2.55693,-3.8082 -1.57243,1.10138 -4.63254,2.0025 -6.80024,2.0025 -3.09258,0 -5.92622,1.77666 -13.15936,8.25075 -10.7106,9.58662 -13.07089,14.62471 -8.56201,18.27577 3.56259,2.88482 7.19179,2.80749 11.84391,-0.25234 z m -6.31003,-5.56536 c -2.51458,-3.83776 -0.59552,-8.20882 3.604,-8.20882 6.17655,0 8.14684,7.29356 2.64722,9.79935 -4.13951,1.8861 -3.93998,1.93686 -6.25122,-1.59053 z m 11.51837,-6.54216 c -1.48548,-1.48546 -0.88219,-6.32001 0.98167,-7.86687 2.07463,-1.72179 5.98869,-0.82116 8.24463,1.89706 2.95154,3.55639 -5.90754,9.28859 -9.2263,5.96981 z m -138.3336,5.52084 c -2.2e-4,-2.42161 2.93133,-12.43424 6.39693,-21.84851 0.56408,-1.53232 3.71497,-4.47475 7.00197,-6.53875 3.287,-2.064 5.41386,-3.76133 4.72636,-3.77182 -2.22903,-0.034 -9.16004,4.75662 -14.25924,9.85582 -6.21296,6.21296 -11.15671,21.15815 -8.03242,24.28242 1.80657,1.80658 4.16665,0.68548 4.1664,-1.97916 z M 103.75,293.03256 c 16.70091,-7.75656 29.3802,-29.97311 36.23042,-63.48266 3.0965,-15.14729 3.10169,-15.7999 0.12553,-15.7999 -4.25169,0 -13.20414,13.66231 -17.60147,26.86155 C 117.28743,256.27131 113.78237,260 104.27885,260 c -7.776557,0 -8.075451,0.61954 -4.306302,8.926 4.514062,9.9481 2.428662,19.25832 -5.003227,22.33671 -3.301035,1.36733 -4.533082,1.31227 -8.038333,-0.35927 -6.808377,-3.24669 -12.965364,-9.47842 -18.395667,-18.61896 -2.81954,-4.74599 -6.174686,-9.19008 -7.455878,-9.87576 -1.46616,-0.78467 -2.329443,-2.6162 -2.329443,-4.94211 0,-2.34167 -0.915834,-4.26737 -2.5,-5.2567 -1.669334,-1.04252 -2.5,-2.91504 -2.5,-5.6356 0,-2.82624 -0.586663,-4.07431 -1.915149,-4.07431 -2.91329,0 -10.584851,3.46788 -10.584851,4.78481 0,0.6393 4.078125,5.00734 9.0625,9.70674 4.984375,4.69941 9.804225,9.96874 10.710776,11.70962 2.626209,5.04323 11.405078,15.97694 16.228598,20.21205 9.103369,7.99287 15.88721,9.04747 26.498126,4.11934 z m 2.01601,-16.96057 c -1.10881,-1.58304 -2.01601,-4.42988 -2.01601,-6.3263 0,-2.74559 0.70032,-3.60152 3.4375,-4.20128 1.89063,-0.41427 4.12523,-0.96392 4.96579,-1.22146 1.9848,-0.6081 5.34671,4.21912 5.34671,7.67712 0,3.1757 -1.90301,4.98873 -6.42849,6.12455 -2.57413,0.64607 -3.72792,0.19969 -5.3055,-2.05263 z m 17.21535,-15.37055 c -1.4497,-3.77786 4.95283,-21.95144 7.73345,-21.95144 2.7178,0 2.17935,5.23911 -1.4772,14.37299 -3.51206,8.773 -5.07251,10.66322 -6.25625,7.57845 z m 46.03879,30.86106 5.21654,-3.4375 -3.49853,-0.40809 c -2.32009,-0.27063 -4.50731,0.5396 -6.49335,2.40539 -6.00342,5.63994 -2.98116,6.55142 4.77534,1.4402 z M 160,290.625 c 0,-1.03125 -0.84375,-1.875 -1.875,-1.875 -1.95196,0 -2.47996,1.47838 -1.04166,2.91666 1.43828,1.4383 2.91666,0.9103 2.91666,-1.04166 z m 191.65881,-7.16704 c 3.04951,-4.08837 2.04641,-5.61181 -2.6207,-3.98017 -2.44749,0.85563 -3.52801,2.19027 -3.81922,4.7174 -0.52382,4.54561 2.78172,4.1672 6.43992,-0.73723 z m -35.49954,-3.00154 c 3.8252,-4.86296 3.45708,-8.22216 -0.84677,-7.72695 -3.0759,0.35392 -3.47794,0.95437 -3.82188,5.70803 -0.44165,6.1042 0.97373,6.71626 4.66865,2.01892 z M 90.344261,279.06021 c 8.4724,-9.3619 3.291373,-20.2138 -13.835874,-28.97987 -4.385772,-2.24473 -8.292895,-5.39133 -10.143713,-8.16923 -3.388658,-5.08607 -7.194754,-5.51917 -6.662818,-0.75817 0.179771,1.609 -0.609614,3.61022 -1.754187,4.44716 -1.843478,1.34797 -1.631072,1.67855 1.860643,2.89577 4.153335,1.44787 4.356227,1.8763 2.78407,5.87913 -1.670143,4.2523 0.949094,8.75031 10.472869,17.985 9.68232,9.38841 13.504815,10.87065 17.27901,6.70021 z M 79.014129,275.3125 c -4.874635,-4.24353 -11.648949,-15.6591 -11.262573,-18.97886 0.323764,-2.78179 1.047625,-3.25818 5.441203,-3.58105 3.736056,-0.27455 5.994523,0.35657 8.594539,2.40175 C 88.081326,260.10523 92.054979,272.44503 88.5,276 c -2.16388,2.16388 -6.577917,1.84396 -9.485871,-0.6875 z M 81.25,264.92622 c 0,-0.64692 -0.84375,-1.17622 -1.875,-1.17622 -1.933013,0 -2.48338,1.47495 -1.07565,2.88269 0.998664,0.99866 2.95065,-0.13024 2.95065,-1.70647 z m 226.01562,8.9019 c 0.3125,-0.9375 -0.15625,-1.40625 -1.09375,-1.09375 -0.90235,0.30078 -1.88672,1.28515 -2.1875,2.1875 -0.3125,0.9375 0.15625,1.40625 1.09375,1.09375 0.90234,-0.30078 1.88672,-1.28516 2.1875,-2.1875 z m -123.15898,-3.07967 c 32.79566,-15.82033 90.28273,-64.68915 131.56802,-111.84381 6.84769,-7.8212 12.98095,-14.94708 13.62946,-15.83528 0.83304,-1.14091 0.007,-2.70936 -2.8125,-5.34365 -3.8925,-3.63614 -3.99162,-3.99666 -3.99162,-14.51737 0,-12.72566 1.98856,-18.48327 7.33945,-21.25032 4.1837,-2.163474 13.34109,-2.640694 14.50592,-0.75595 0.40862,0.66114 -1.45618,2.32397 -4.14398,3.69519 -8.5179,4.3455 -16.25839,15.79206 -13.79353,20.3977 2.04493,3.82099 17.34214,2.41941 17.34214,-1.58894 0,-0.66331 -0.80292,-1.20602 -1.78427,-1.20602 -5.09263,0 -9.17953,-12.56624 -4.38225,-13.47436 3.44624,-0.65237 8.66652,4.5333 8.66652,8.60906 0,3.15406 0.32441,3.524 2.1875,2.4945 3.9032,-2.1568 10.3125,-8.69117 10.3125,-10.51373 0,-0.97651 -2.16899,-3.27858 -4.81996,-5.11571 -5.35065,-3.70799 -7.68004,-7.749481 -7.68004,-13.324823 0,-3.155792 0.83696,-4.114055 5.625,-6.440266 6.21499,-3.019471 6.6589,-4.454901 3.62399,-11.718464 -1.92097,-4.59751 -1.89597,-4.874172 0.625,-6.915521 4.2471,-3.439095 3.16451,-4.850686 -3.72014,-4.850686 -5.34751,0 -6.92114,-0.57498 -10,-3.653846 C 338.42149,53.6138 337.73144,51.25 340.55123,51.25 c 2.89366,0 3.43522,-2.166906 1.48438,-5.939401 -1.33386,-2.579408 -1.46876,-4.134281 -0.50767,-5.85164 1.18436,-2.11633 0.94317,-2.265681 -2.53533,-1.56998 -5.5709,1.114178 -20.24261,7.982312 -20.24261,9.475986 0,0.699464 2.10937,1.653667 4.6875,2.120454 7.60936,1.377725 11.13974,3.851961 14.03761,9.838162 2.00936,4.150804 2.49744,6.719968 1.84683,9.721599 -0.8624,3.978808 -0.82384,4.02566 1.55781,1.89232 3.9689,-3.55512 7.31856,-2.74982 9.73391,2.340159 1.67836,3.536892 1.85216,5.178081 0.79423,7.5 -2.05102,4.501481 -5.86365,3.701987 -10.07592,-2.112875 l -3.68371,-5.085216 -3.15052,4.772716 c -1.73278,2.624994 -4.0367,7.29236 -5.11983,10.371925 -1.08314,3.079565 -3.63626,8.935034 -5.67362,13.012151 -2.03735,4.07712 -3.70957,8.30748 -3.71602,9.40079 -0.0159,2.69132 -6.56835,13.92071 -9.84328,16.86909 -1.45475,1.30967 -2.64499,3.24303 -2.64499,4.29636 0,1.35923 -1.05904,0.90051 -3.64843,-1.58029 -4.53183,-4.34177 -6.71778,-3.32055 -5.60372,2.61794 0.48171,2.56776 0.13946,6.47116 -0.82314,9.38788 -1.27035,3.8492 -1.31182,5.46828 -0.18107,7.06973 4.90213,6.94274 7.70565,12.62983 7.058,14.31755 -1.16295,3.03061 -4.25153,3.59269 -8.39187,1.52721 -2.08662,-1.04093 -4.26995,-1.89262 -4.85182,-1.89262 -0.58188,0 -1.06624,4.07812 -1.07638,9.0625 -0.01,4.98437 -0.71326,10.29157 -1.5625,11.79377 C 286.91732,187.26268 270,200.7963 270,199.34128 c 0,-0.40052 2.26196,-4.4786 5.02659,-9.0624 8.6896,-14.40757 9.77005,-26.01802 3.2203,-34.60519 -3.7954,-4.97602 -27.68192,-23.14875 -38.34454,-29.1723 C 233.7494,123.02544 230,118.64832 230,114.94118 c 0,-3.22524 5.86465,0.42989 30.91696,19.26898 26.29345,19.7724 31.89283,23.32241 33.27036,21.0935 1.14348,-1.85017 -0.78735,-3.51715 -15.43732,-13.32784 -21.3126,-14.27247 -30.45649,-20.64456 -32.05335,-22.33699 -2.27611,-2.41233 -3.3407,-7.13883 -1.60795,-7.13883 0.82895,0 8.7888,5.12908 17.68858,11.39796 C 287.88085,141.58059 290,141.77247 290,126.363 c 0,-9.87414 1.28416,-13.07884 4.10891,-10.25408 0.7651,0.76509 2.10473,1.39108 2.97696,1.39108 1.21124,0 1.40647,-2.32652 0.82643,-9.84833 -0.92709,-12.022206 -0.22346,-15.106086 4.73525,-20.753745 4.88637,-5.565269 10.00451,-5.917539 15.09655,-1.039061 2.89519,2.773761 3.5059,2.977449 3.5059,1.1693 0,-1.20426 -1.69854,-3.618785 -3.77451,-5.36561 -8.43363,-7.096428 -12.34819,-18.909427 -7.31079,-22.06185 2.94034,-1.840077 9.4006,1.15268 12.00485,5.561317 2.63854,4.466691 5.0159,4.578046 6.63826,0.310933 C 330.47122,61.09784 328.41846,58.75 322.92979,58.75 c -3.54825,0 -4.69745,-0.734473 -6.84541,-4.375 C 314.66465,51.96875 312.97371,50 312.32674,50 c -3.33615,0 -30.62355,17.213363 -40.0508,25.264726 -1.84198,1.573151 -11.36869,9.329024 -21.17047,17.235274 -9.80177,7.90625 -22.96956,18.59375 -29.26175,23.75 -6.29218,5.15625 -13.04852,10.53871 -15.01408,11.96104 -5.7132,4.1342 -2.05257,4.2776 9.74547,0.38177 10.00444,-3.30356 11.29986,-3.46681 15,-1.89041 6.78323,2.88991 9.99824,7.37932 10.15873,14.18554 l 0.14116,5.98706 8.11305,0.37995 c 5.368,0.25139 8.44751,0.97759 9.10155,2.14627 0.54366,0.97149 3.36154,2.877 6.26194,4.23448 6.1606,2.88335 8.3549,4.60282 11.26832,8.82994 2.92531,4.24436 2.74919,13.37871 -0.35616,18.47186 -2.13698,3.5049 -3.17054,4.0625 -7.53014,4.0625 l -5.05319,0 0.78989,7.8125 c 0.69125,6.83686 0.45011,8.24178 -1.93091,11.25 -2.22396,2.80979 -3.71751,3.4375 -8.17905,3.4375 -4.57179,0 -6.39649,-0.81204 -11.2353,-5 -9.79598,-8.47835 -10.62298,-6.16274 -3.125,8.75 2.75,5.46948 5,10.76885 5,11.77637 0,2.35745 -4.79921,5.72363 -8.16029,5.72363 -1.4322,0 -4.48475,-1.38756 -6.78342,-3.08348 -4.73773,-3.49537 -6.30629,-3.15549 -6.30629,1.36648 0,2.63325 0.4277,2.99972 2.67021,2.28797 2.36763,-0.75145 2.57896,-0.48395 1.86503,2.36064 -0.44287,1.76448 -1.40523,4.77981 -2.1386,6.70076 -1.24554,3.26251 -1.44288,3.34357 -2.99502,1.23033 -1.1498,-1.56545 -1.93456,-1.82068 -2.54771,-0.82859 -0.52006,0.84149 -1.34726,0.97254 -2.00254,0.31726 -1.5677,-1.5677 0.68972,-12.67817 3.05689,-15.04535 1.74281,-1.74281 1.61923,-2.34232 -1.26144,-6.11906 -3.50516,-4.5955 -3.12008,-5.20991 1.4064,-2.24404 1.87506,1.22858 3.25225,1.47859 3.74579,0.68003 1.45529,-2.3547 -2.79062,-9.92513 -6.70054,-11.94703 C 216.52203,203.22286 215,201.45977 215,199.9679 c 0,-2.96551 0.3378,-3.00383 5.04091,-0.57174 4.92381,2.5462 7.90761,8.6556 7.81838,16.00831 -0.0626,5.15675 0.35307,6.2237 2.87175,7.37128 2.19686,1.00096 3.43061,0.93871 4.85695,-0.24503 2.88973,-2.39827 2.3751,-5.13715 -3.08799,-16.43411 -4.80166,-9.92924 -6.3289,-17.62776 -3.80629,-19.18682 0.65655,-0.40578 4.31875,2.09228 8.13824,5.55122 8.35456,7.56594 13.77557,8.4642 18.07732,2.99541 5.67353,-7.21271 2.4359,-12.92402 -10.54688,-18.60515 -7.27399,-3.18302 -11.77784,-7.09858 -11.83459,-10.28877 -0.0486,-2.73546 4.04666,-1.65575 15.51765,4.09116 15.03767,7.53379 19.13694,7.25879 22.02007,-1.47722 1.32122,-4.00332 1.23907,-4.79507 -0.64017,-6.1692 -1.18576,-0.86705 -4.49468,-1.92993 -7.35314,-2.36197 -13.71041,-2.07219 -18.49181,-3.45077 -19.92431,-5.74457 -3.60804,-5.77739 -9.46903,-0.53491 -16.55989,14.81231 -3.8844,8.40729 -4.22835,9.95671 -3.0218,13.61263 1.72339,5.22192 1.03238,6.26901 -4.78583,7.25198 -2.58858,0.43734 -5.5185,1.297 -6.51094,1.91037 -3.08961,1.90948 -3.16689,16.89143 -0.15334,29.72752 1.44865,6.17043 2.6339,14.3337 2.6339,18.1406 0,6.24993 -0.38755,7.24775 -3.99335,10.28184 -4.41014,3.71087 -8.88481,3.72725 -16.23721,0.0594 -5.77111,-2.87901 -6.84036,-2.49968 -10.48518,3.71974 -3.31332,5.65375 -6.84245,8.24671 -13.34676,9.80631 -3.70846,0.88922 -4.15311,2.48168 -2.15807,7.72902 1.14016,2.99886 1.75725,3.28761 5.66915,2.6528 2.41433,-0.39179 7.32297,-2.12733 10.90806,-3.85675 z m 2.69457,-8.72241 c -1.3672,-5.44735 -0.15601,-10.11825 2.73048,-10.53006 5.33137,-0.7606 9.16476,8.05757 5.21831,12.00402 -2.63605,2.63605 -7.12621,1.80342 -7.94879,-1.47396 z M 307.57351,157.231 c -0.0545,-3.44345 0.89594,-5.74815 3.67649,-8.91502 2.12412,-2.41924 3.75,-5.68985 3.75,-7.5435 0,-2.07554 0.6858,-3.27248 1.875,-3.27248 2.74689,0 2.28825,-2.10035 -0.625,-2.86219 -2.94988,-0.77141 -3.297,-3.16043 -0.60909,-4.19188 2.94995,-1.13201 5.60909,1.94985 5.60909,6.50076 0,5.71498 -1.90375,10.19282 -6.61478,15.55867 -2.20562,2.5122 -4.68027,5.64809 -5.49921,6.96864 -1.31945,2.12761 -1.49736,1.87221 -1.5625,-2.243 z m -28.34425,-39.23745 c 0.45291,-3.85354 1.51474,-8.21292 2.3596,-9.6875 1.37443,-2.39881 1.57681,-1.96435 1.92249,4.12714 0.48642,8.57197 -0.49339,12.56681 -3.08226,12.56681 -1.72169,0 -1.90054,-1.04444 -1.19983,-7.00645 z m -10.76802,-0.18105 c -1.05944,-1.20312 -3.37051,-5.07043 -5.13575,-8.59401 -3.76283,-7.51097 -6.14023,-8.89388 -8.72993,-5.0781 l -1.85592,2.73461 -1.42084,-3.65306 c -1.93797,-4.982669 -0.83276,-7.226629 3.32121,-6.743154 3.07698,0.358125 7.8964,5.505454 9.41206,10.052444 1.32039,3.96114 3.16239,-1.58947 4.63395,-13.963728 C 269.8694,82.616611 270.80119,78.75 272.0158,78.75 c 0.92761,0 2.03081,1.546875 2.45156,3.4375 1.81984,8.1774 1.49885,7.858114 5.56434,5.534926 4.33096,-2.474887 7.4337,-1.188355 9.22066,3.823289 1.74552,4.895384 0.20774,7.204285 -4.79821,7.204285 -3.47286,0 -4.73554,-0.689439 -6.12721,-3.345546 -1.69714,-3.239106 -1.79594,-3.265144 -3.10542,-0.818375 -0.74387,1.389945 -1.74123,7.676691 -2.21636,13.970551 C 272.53004,114.85048 271.74669,120 271.26439,120 c -0.48232,0 -1.74373,-0.98437 -2.80315,-2.1875 z m 66.76432,-26.875 c 0.21969,-1.546875 1.24319,-2.8125 2.27444,-2.8125 1.03125,0 2.05475,1.265625 2.27444,2.8125 0.30742,2.164619 -0.21652,2.8125 -2.27444,2.8125 -2.05793,0 -2.58186,-0.647881 -2.27444,-2.8125 z M 292.03335,75.586901 c -1.46214,-3.81025 -0.82523,-9.053362 1.19389,-9.828165 6.56145,-2.517865 10.92296,0.435736 10.29555,6.972109 -0.37295,3.885458 -0.71954,4.167666 -5.55194,4.52079 -3.85345,0.281587 -5.35184,-0.138526 -5.9375,-1.664734 z M 378.75,263.75 c 0,-0.6875 -0.81055,-1.25 -1.80123,-1.25 -0.99067,0 -2.14887,0.5625 -2.57377,1.25 -0.4249,0.6875 0.38565,1.25 1.80123,1.25 1.41557,0 2.57377,-0.5625 2.57377,-1.25 z m -93.78504,-2.4519 c 1.58079,-0.9997 1.54208,-1.27793 -0.27483,-1.97514 -2.13987,-0.82115 -27.13359,1.45384 -28.25124,2.57149 -1.14731,1.14731 26.68908,0.56539 28.52607,-0.59635 z m 38.47899,-0.9856 c 0.57741,-1.75397 -11.6743,-2.20958 -17.19395,-0.63939 -2.97446,0.84616 -2.91425,0.92908 1.25,1.72133 6.6934,1.27344 15.36221,0.68517 15.94395,-1.08194 z m 53.06642,-7.43753 c 8.31846,-3.32838 3.774,-3.16078 -6.51037,0.24011 -7.72578,2.55479 -8.43704,2.99013 -4.04314,2.47467 2.93253,-0.34401 7.6816,-1.56566 10.55351,-2.71478 z m 19.03649,-4.36753 c 8.86048,-9.79115 13.56483,-19.24822 14.12803,-28.40133 0.44695,-7.26372 -1.15935,-11.96155 -4.8853,-14.28762 -1.665,-1.03945 -3.04469,-0.37019 -6.84373,3.31982 -2.61707,2.54195 -5.75676,4.93863 -6.97708,5.32595 -2.97984,0.94576 -2.79435,3.9199 0.7448,11.9427 5.27587,11.9597 5.24596,13.44054 -0.42515,21.04154 -2.77114,3.71416 -5.03843,7.21392 -5.03843,7.77726 0,2.49213 2.77964,0.48344 9.29686,-6.71832 z m -292.63585,1.03752 c 6.43334,-2.68801 14.38629,-13.91434 11.73524,-16.56537 -1.31838,-1.31839 -10.88471,4.63952 -14.27806,8.89237 -1.921256,2.40788 -4.075036,4.37798 -4.78618,4.378 -0.711145,3e-5 -2.32542,-1.74772 -3.587277,-3.88387 -2.242304,-3.79593 -2.233964,-4.07207 0.368058,-12.1875 1.464289,-4.56698 3.831782,-12.90149 5.261094,-18.52114 1.924934,-7.5683 3.729515,-11.5386 6.959835,-15.3125 4.71996,-5.51421 8.06977,-6.34889 12.63815,-3.14908 2.76219,1.93472 2.77813,1.90926 2.77813,-4.43707 0,-3.51063 0.88053,-8.0857 1.95673,-10.16685 1.0762,-2.08114 2.66607,-9.26145 3.53304,-15.95624 0.86697,-6.69479 1.96788,-12.80592 2.44647,-13.58029 0.61726,-0.99875 2.40553,-0.72053 6.15301,0.95727 2.90557,1.30086 5.74461,1.90345 6.30899,1.33907 1.43742,-1.43742 -0.32523,-9.85017 -2.52464,-12.04959 -2.38294,-2.38293 -4.50874,-1.10745 -2.9642,1.77854 1.39441,2.60548 -0.27178,5.86541 -2.34346,4.58504 -0.80495,-0.49749 -1.28973,-2.39768 -1.07725,-4.22264 0.37612,-3.23066 0.22712,-3.30794 -5.65341,-2.93226 -9.991,0.63827 -19.43216,6.30476 -23.3079,13.98915 -5.619702,11.14211 -3.376537,13.78234 4.08145,4.8039 5.31387,-6.3972 8.3909,-5.99593 8.39171,1.09437 4.9e-4,4.23133 -0.8621,5.51279 -8.23017,12.22673 l -8.230716,7.5 -1.81656,12.5 c -2.045316,14.0741 -5.80622,23.03374 -10.336598,24.62497 -2.562127,0.89993 -3.73671,0.23473 -8.23277,-4.66241 -4.645886,-5.06032 -5.431845,-5.48607 -6.888215,-3.73125 -0.904171,1.08946 -2.045423,6.3206 -2.536116,11.62476 -0.490694,5.30417 -1.621919,11.19318 -2.513834,13.08672 -0.891913,1.89352 -1.389665,3.65705 -1.106112,3.91894 1.18677,1.09608 27.02279,13.70415 29.890551,14.58668 1.71875,0.52894 3.283691,1.01005 3.477649,1.06915 0.193956,0.0591 2.188971,-0.65982 4.433361,-1.5976 z M 77.778132,233.05412 C 73.19149,229.84151 74.776173,222.5 80.056265,222.5 c 2.540569,0 6.193735,3.87606 6.193735,6.57164 0,2.01602 -3.175051,5.92836 -4.811153,5.92836 -0.485419,0 -2.132741,-0.87565 -3.660715,-1.94588 z m 28.521708,-48.61907 c -2.39645,-2.88754 -1.0675,-6.31005 2.45016,-6.31005 1.98122,0 3.24614,0.80684 3.5236,2.24755 0.43281,2.2474 -1.74345,5.87745 -3.5236,5.87745 -0.51914,0 -1.62171,-0.81673 -2.45016,-1.81495 z m 8.75,-35 c -2.60295,-3.13636 -1.05627,-6.31005 3.07516,-6.31005 4.35074,0 5.56855,3.00287 2.47315,6.09827 -2.49873,2.49873 -3.61495,2.54134 -5.54831,0.21178 z m 212.58893,94.62745 c 2.4901,-7.37517 2.08187,-17.15303 -0.88588,-21.21813 -3.36899,-4.61469 -18.08493,-14.51233 -19.48922,-13.10804 -1.5146,1.51459 0.11238,5.26367 2.28429,5.26367 2.75083,0 3.53031,3.67655 1.1487,5.41802 -1.70901,1.24967 -2.17602,3.99594 -2.42382,14.25338 l -0.30695,12.70546 4.45456,0.47644 c 13.00515,1.39097 13.51136,1.26489 15.21832,-3.7908 z m -7.08447,-0.4269 c -0.42667,-0.69038 -1.92405,-1.08769 -3.3275,-0.88291 -4.39843,0.64176 -5.38564,-2.86324 -3.29156,-11.68629 2.46752,-10.39648 5.43976,-10.97915 5.43976,-1.0664 0,6.17795 0.28516,6.9155 2.8125,7.27444 1.99508,0.28335 2.8125,1.24356 2.8125,3.30376 0,3.05592 -3.12036,5.20185 -4.4457,3.0574 z m 32.42154,1.86155 c 14.37128,-2.27554 31.58774,-7.31389 34.83666,-10.19486 2.87402,-2.54853 2.75909,-6.22443 -0.35429,-11.33103 -3.76812,-6.18052 -23.32172,-25.55842 -25.16886,-24.94271 -2.389,0.79634 -3.4888,8.00709 -2.72197,17.84645 1.31318,16.85001 -3.31438,19.95399 -17.57248,11.7869 -4.74656,-2.71885 -8.92076,-4.65271 -9.276,-4.29746 -0.35524,0.35523 0.0127,3.49897 0.8176,6.98608 0.80493,3.48712 1.4635,8.17229 1.4635,10.41151 0,6.66191 -0.21991,6.61621 17.97584,3.73512 z M 429.3515,229.0625 c -0.46611,-4.64063 -1.36215,-10.85105 -1.9912,-13.80095 -1.1927,-5.59313 -0.38093,-8.48595 3.2199,-11.47438 1.64555,-1.36567 2.39504,-1.24683 4.58986,0.72782 2.60533,2.34396 2.66679,2.31201 9.03905,-4.69935 7.74297,-8.51955 16.761,-23.19314 23.00444,-37.43145 4.37756,-9.98312 4.63148,-11.30579 5.07226,-26.42273 0.4158,-14.26 0.12338,-17.10117 -2.81458,-27.34329 -4.61258,-16.080247 -10.20178,-28.925828 -15.86563,-36.463695 -4.67907,-6.227256 -5.7086,-9.727128 -4.09686,-13.927241 1.2253,-3.193078 3.77614,-2.299711 7.73864,2.710266 11.55118,14.604691 20.77243,37.508075 23.84958,59.23666 2.14108,15.11868 -2.05516,39.43285 -9.25891,53.64876 -5.18519,10.23248 -17.82475,28.13447 -25.04159,35.46753 -3.86635,3.92861 -6.65044,7.52224 -6.18685,7.98582 1.62065,1.62065 22.49853,-21.7459 28.59389,-32.00233 19.38855,-32.62432 20.37979,-71.08812 2.76215,-107.181846 C 466.06501,66.003316 464.0212,63.146571 455.3378,54.850495 445.07772,45.048084 430.24974,36.25 423.98916,36.25 l -3.17495,0 2.7179,2.893064 c 3.50623,3.732211 3.43778,5.033977 -0.92702,17.631038 -2.0047,5.785677 -3.3172,10.84712 -2.91667,11.247654 0.40054,0.400534 1.75949,0.728244 3.01992,0.728244 2.86175,0 2.85411,0.15382 -0.27068,5.449936 -2.00864,3.4044 -2.48134,6.053416 -2.1875,12.25895 l 0.37484,7.916114 5.43591,0.725433 c 4.11128,0.548658 6.0912,0.192137 8.125,-1.463058 2.41648,-1.966631 2.66418,-3.283671 2.44328,-12.991744 -0.21187,-9.311847 0.0303,-10.749232 1.75392,-10.411942 3.22844,0.631752 6.86253,9.240021 7.55789,17.902857 0.79259,9.87397 -1.16946,13.499224 -9.23759,17.068144 l -5.58575,2.47083 4.29032,4.74886 c 4.01332,4.44228 5.78282,8.30159 7.62857,16.63812 0.95536,4.315 3.93295,4.47135 4.98944,0.26197 1.81662,-7.23803 3.29644,-30.596604 2.49036,-39.310094 -0.75476,-8.1588 -0.62977,-9.164625 0.97346,-7.834053 1.01168,0.839612 3.2997,4.209606 5.0845,7.488875 6.76298,12.425812 7.40772,46.556002 1.00815,53.368032 -1.59127,1.69382 -2.58246,4.42286 -2.58246,7.11023 0,8.21157 -11.69465,38.90022 -17.21124,45.16504 -6.20941,7.05164 -19.75071,-2.45775 -24.77978,-17.40162 l -2.82428,-8.39233 -11.02985,-5.00509 c -9.73277,-4.41651 -12.49981,-5.09486 -23.52985,-5.76842 -11.7381,-0.7168 -17.60616,-2.40085 -22.79874,-6.5429 -2.97918,-2.37645 -0.15306,-3.41333 4.26827,-1.56598 5.16161,2.15666 6.65547,2.31674 6.65547,0.71317 0,-0.63288 -1.68787,-1.5214 -3.75082,-1.97452 -2.06297,-0.4531 -6.08393,-2.77306 -8.93549,-5.15547 l -5.18466,-4.33165 -3.56452,3.41501 c -1.96047,1.87826 -3.56451,4.06752 -3.56451,4.86504 0,0.7975 4.56385,3.90637 10.14187,6.90862 5.57804,3.00225 10.39988,6.32263 10.71519,7.37864 1.19805,4.01221 2.4511,5.29689 8.64757,8.86579 l 6.37962,3.6744 3.9215,-3.74759 c 2.15683,-2.06119 5.05161,-3.7476 6.43288,-3.7476 3.00254,0 3.23976,1.58939 0.56812,3.80664 -4.55473,3.78008 -4.62206,6.04339 -0.29913,10.05295 2.26457,2.1004 5.7641,4.68857 7.77677,5.7515 3.37925,1.78465 3.78596,1.75952 5.3125,-0.32815 2.70792,-3.7033 1.98223,-5.2918 -2.32633,-5.09225 -7.30347,0.33826 -10.0135,-10.10499 -2.98107,-11.48775 1.18058,-0.23214 3.10978,0.44967 4.28711,1.51513 1.19526,1.0817 3.2778,1.63983 4.71567,1.26382 3.83007,-1.00159 6.08024,5.51258 6.09442,17.64311 0.01,8.29518 0.59573,11.23142 3.4375,17.22314 1.8842,3.97273 3.42581,7.76961 3.42581,8.4375 0,0.6679 0.5625,1.21436 1.25,1.21436 0.69252,0 1.25,-3.29925 1.25,-7.39776 0,-8.46331 0.81051,-11.35224 3.18496,-11.35224 3.0514,0 3.68985,3.00884 3.71333,17.5 0.0229,14.09362 1.51145,21.25 4.42026,21.25 0.95461,0 1.11901,-2.60275 0.53295,-8.4375 z M 427.08334,86.666666 C 426.625,86.208334 426.25,84.55403 426.25,82.990437 c 0,-1.563592 -0.53794,-3.175356 -1.19541,-3.581697 -2.10059,-1.298234 0.15072,-4.557283 2.87529,-4.16233 3.3867,0.490936 5.66531,7.552816 3.34076,10.353722 -1.71285,2.063857 -2.89013,2.363717 -4.1873,1.066534 z m 10.35297,-25.570424 c -1.01015,-2.438718 -3.17806,-4.556017 -5.77665,-5.641775 C 426.78669,53.418406 426.05709,50 430.49551,50 434.2976,50 441.25,57.704882 441.25,61.918495 c 0,4.260914 -1.87569,3.856506 -3.81369,-0.822252 z M 109.12458,221.69434 c 6.1906,-3.18112 17.23896,-10.97985 22.59431,-15.9487 4.27406,-3.96562 4.74867,-4.9703 4.0346,-8.54073 -0.44512,-2.22554 -1.63435,-4.8715 -2.64277,-5.8799 -1.61129,-1.61131 -2.25167,-1.4942 -5.28459,0.96638 -1.89813,1.53991 -4.47224,3.13578 -5.72026,3.54636 -1.87683,0.61746 -2.12797,1.58207 -1.45263,5.57939 0.86709,5.13225 0.0986,5.7975 -3.52383,3.05032 -4.68516,-3.55316 -10.71225,1.17075 -14.62202,11.46045 -3.17411,8.35356 -1.4097,9.89113 6.61719,5.76643 z m 239.29871,-1.10619 c 3.90403,-2.7345 5.16151,-8.80176 4.38935,-21.17848 l -0.67455,-10.8123 -7.36121,-4.99888 c -11.09643,-7.53545 -15.76497,-12.0604 -16.66339,-16.15088 -1.19711,-5.45044 -3.65553,-4.55244 -9.55418,3.48989 -2.89942,3.95312 -8.40202,10.45627 -12.228,14.45145 l -6.95631,7.26396 3.45495,3.0036 c 1.90023,1.65198 7.4149,5.31634 12.25484,8.143 4.83992,2.82668 11.72826,7.52463 15.30741,10.43988 10.9091,8.88558 13.23836,9.70571 18.03109,6.34876 z m -5.2747,-3.06209 c -2.41239,-2.66565 -2.66003,-2.37366 3.68637,-4.34647 2.57994,-0.80198 3.52744,1.30762 1.92886,4.29457 -1.69267,3.16281 -2.79072,3.17295 -5.61523,0.0519 z m -3.72324,-10.72337 c -2.46851,-5.90798 -2.43023,-6.44453 0.57465,-8.05269 3.37156,-1.80441 7.2223,0.33331 8.29431,4.60455 1.00211,3.99275 -0.76466,7.13476 -4.30912,7.66329 -2.01883,0.30103 -3.08445,-0.68404 -4.55984,-4.21515 z m -8.1548,-8.65294 c -0.89294,-1.0759 -2.58967,-1.64955 -3.77055,-1.27475 -3.37076,1.06984 -5.18244,-2.34246 -4.75995,-8.96539 0.35355,-5.5423 0.66539,-6.06687 3.82245,-6.43014 3.89002,-0.4476 4.70769,2.16025 1.50953,4.81449 -2.68942,2.23203 -0.34509,4.34153 2.89671,2.60656 1.36792,-0.73208 2.81691,-2.19045 3.21997,-3.2408 0.40305,-1.05035 1.65442,-1.90972 2.78079,-1.90972 1.239,0 1.78347,0.68925 1.3784,1.74489 -0.36828,0.95968 -1.36703,4.19406 -2.21946,7.1875 -1.96773,6.90992 -2.84307,7.89508 -4.85789,5.46736 z m -19.45236,-2.46794 c -3.69324,-3.69322 -3.90907,-6.39383 -0.65037,-8.13783 3.72064,-1.99123 4.86133,-1.59689 6.92508,2.39394 4.27638,8.26962 0.0865,12.10508 -6.27471,5.74389 z m -139.53225,10.15418 c 0.33791,-1.77215 -0.22082,-2.19553 -2.47447,-1.875 -1.61713,0.23 -3.10493,1.43139 -3.34741,2.70302 -0.33791,1.77215 0.22081,2.19553 2.47446,1.875 1.61714,-0.23 3.10494,-1.43138 3.34742,-2.70302 z m -24.61298,-12.174 c 1.17968,-6.48285 2.18585,-12.20886 2.23595,-12.72449 0.17576,-1.80905 -3.93376,-0.91202 -7.51974,1.64141 -3.4808,2.47855 -3.54965,2.71837 -1.76905,6.16167 1.12827,2.18181 1.55614,5.06563 1.09424,7.3751 -0.95396,4.76983 0.40705,10.46885 2.34579,9.82261 0.80737,-0.26913 2.43314,-5.79346 3.61281,-12.2763 z m -91.695083,9.03113 c 0.35822,-1.07578 -0.242815,-1.52625 -1.667835,-1.25 -1.225332,0.23753 -2.479896,1.18873 -2.78792,2.11376 -0.35822,1.07578 0.242815,1.52625 1.667835,1.25 1.225333,-0.23753 2.479897,-1.18873 2.78792,-2.11376 z m 30.208558,-2.27122 c 2.939889,-3.73746 4.563531,-8.8386 3.235835,-10.1663 -1.039851,-1.03985 -10.580841,9.66466 -10.634968,11.9319 -0.06663,2.79076 4.712062,1.65045 7.399133,-1.7656 z m 294.651705,1.1406 c -0.3869,-1.20313 -2.00784,-5.79571 -3.60209,-10.20575 l -2.89865,-8.01825 -16.74099,-11.39786 c -11.90299,-8.10396 -17.29136,-12.55999 -18.64547,-15.41924 -1.04748,-2.21178 -2.46933,-4.0214 -3.15967,-4.0214 -2.32798,0 -7.04127,5.41475 -7.04127,8.08921 0,3.17259 6.33733,9.36748 17.72399,17.32565 6.92087,4.83701 9.30731,5.83514 13.95139,5.83514 4.72138,0 6.11128,0.60479 8.83851,3.84591 3.63032,4.31439 3.82654,5.06367 1.84502,7.04518 -1.79472,1.79472 -0.54369,3.72766 4.33998,6.70555 4.87729,2.97401 6.29445,3.03077 5.38925,0.21586 z m -353.046768,-8.125 c 1.698452,-2.23438 4.092167,-6.03125 5.319367,-8.4375 l 2.231271,-4.375 -2.854003,2.5 C 29.135285,186.06186 22.5,194.90572 22.5,196.43755 c 0,2.22429 2.319967,0.90894 5.291372,-3.00005 z m 359.049688,-0.88259 c 1.13304,-1.8333 -5.43709,-5.70889 -7.01059,-4.13539 -0.8882,0.8882 -0.39126,1.92145 1.59233,3.31082 3.32381,2.3281 4.38886,2.49017 5.41826,0.82457 z M 432.742,180.9375 c 4.6159,-7.99339 13.18101,-30.45396 14.34234,-37.61039 0.58578,-3.60976 0.0906,-4.38671 -5.23115,-8.20854 -6.3182,-4.5374 -8.5543,-8.58463 -9.89865,-17.91614 -0.92327,-6.40864 -3.69854,-10.26 -6.59295,-9.14932 -0.99883,0.38329 -4.02005,0.69689 -6.71383,0.69689 -2.69376,0 -4.89776,0.60478 -4.89776,1.34396 0,0.73918 2.30335,5.22107 5.11855,9.95977 10.80322,18.18451 11.74502,30.85602 2.87237,38.64631 -2.38034,2.08997 -5.15208,3.79996 -6.15942,3.79996 -2.29665,0 -2.40035,4.22177 -0.14959,6.08975 1.60723,1.33388 3.49145,5.18062 7.57891,15.47275 1.02389,2.57812 2.61719,4.6875 3.54068,4.6875 0.92348,0 3.70921,-3.51563 6.1905,-7.8125 z m -1.66881,-15.28099 c -1.2847,-1.28469 1.64312,-21.36171 3.3704,-23.11187 1.57932,-1.60027 1.80641,-1.22029 1.80641,3.02261 0,2.66914 -0.62024,8.41466 -1.37831,12.76786 -1.25855,7.2271 -2.1584,8.96151 -3.7985,7.3214 z m -287.37509,1.8006 C 156.12914,159.90684 165,152.83465 165,150.47442 c 0,-2.24708 -11.66574,-2.38765 -13.43818,-0.16192 -0.68435,0.85937 -2.00408,3.70746 -2.93276,6.32907 -2.49174,7.0342 -3.88041,7.76832 -11.40799,6.03074 -7.4605,-1.72209 -8.42177,-0.9953 -8.45193,6.39019 -0.0261,6.39646 2.13749,6.1638 14.92896,-1.60539 z M 42.5,155.23327 c 10.554318,-4.46464 10.917825,-7.16461 0.9375,-6.96328 -8.319811,0.16783 -8.354653,0.0871 -4.469956,-10.34626 3.470296,-9.32047 3.6414,-9.5248 13.093637,-15.6377 C 56.427531,119.46225 60,116.38646 60,115.45094 c 0,-3.25276 -6.173469,-1.76357 -11.0854,2.67406 -2.663431,2.40625 -5.210746,4.375 -5.660701,4.375 -1.583087,0 2.98311,-7.30833 6.096126,-9.75703 1.732486,-1.36277 3.149975,-3.30533 3.149975,-4.3168 0,-1.01146 1.165826,-3.32113 2.590725,-5.1326 C 57.556044,100.15943 57.567914,100 55.335934,100 c -2.96928,0 -8.493634,5.85118 -15.342334,16.25 -2.943135,4.46875 -6.536329,9.46779 -7.984878,11.10898 -1.838772,2.08329 -2.167153,3.15061 -1.087946,3.53608 0.850176,0.30366 2.782408,1.55349 4.293846,2.77738 2.393189,1.93788 2.589305,2.77262 1.518658,6.46391 -1.102509,3.80112 -1.691871,4.23865 -5.709629,4.23865 -2.506819,0 -5.551721,0.96352 -6.91286,2.1875 -3.115189,2.80126 -5.619242,2.76614 -9.194559,-0.12898 l -2.860727,-2.31647 2.513626,-4.24603 c 2.21223,-3.73691 3.055025,-4.20308 7.028878,-3.88794 3.444041,0.27312 4.828026,-0.22635 5.833621,-2.10533 C 29.192972,130.58665 29.100166,130 26.818181,130 20.953284,130 16.410814,118.89618 18.125,108.75 c 1.090562,-6.45499 2.610721,-6.38007 3.489535,0.17198 0.38154,2.84459 1.59534,6.07361 2.697335,7.17561 3.223349,3.22334 7.552205,-0.1933 17.160096,-13.54397 C 52.499475,87.230314 52.894854,86.875 58.918481,86.875 l 5.07664,0 0.540584,-7.151004 C 65.064416,72.730051 64.982284,72.51137 60.796151,69.767294 56.044513,66.652518 55,62.748549 55,48.103591 55,42.425647 54.446959,39.847129 52.965436,38.617574 51.195209,37.148415 50.460712,37.492212 47.312091,41.263754 39.172557,51.013602 24.591152,74.16463 20.432684,83.940431 14.046081,98.954168 11.277169,113.6941 11.310716,132.5 c 0.01842,10.3246 0.571477,16.60461 1.63036,18.5128 4.63345,8.34984 15.970588,9.96858 29.558924,4.22047 z M 25.004672,105.3125 C 25.023812,101.47233 38.603203,87.5 42.31624,87.5 c 3.573872,0 0.788505,5.328109 -6.13749,11.740359 -6.796151,6.292041 -11.187066,8.678121 -11.174078,6.072141 z M 24.236274,85.625 C 26.493007,75.164825 44.388071,47.5 48.897529,47.5 c 1.919522,0 -0.842521,4.210778 -8.354623,12.736749 -7.7444,8.789622 -9.591371,11.828592 -12.522038,20.603521 -2.392858,7.164629 -5.012607,10.476686 -3.784594,4.78473 z M 46.25,82.028056 c 0,-0.94707 -0.84375,-2.422195 -1.875,-3.278056 -4.52474,-3.7552 -0.723338,-15 5.07088,-15 4.283914,0 4.22636,4.658156 -0.07088,5.736695 -1.71875,0.431379 -3.125,1.630964 -3.125,2.665745 0,1.521464 1.076184,1.720036 5.625,1.037899 3.09375,-0.463936 5.625,-0.461981 5.625,0.0044 C 57.5,74.152173 47.837507,83.75 46.873569,83.75 46.530606,83.75 46.25,82.975125 46.25,82.028056 Z M 405,154.59289 c 0,-3.15749 -11.47364,-11.50422 -14.31514,-10.41383 -2.28868,0.87825 -3.57421,6.97064 -1.89721,8.9913 C 391.2036,156.0814 405,157.29195 405,154.59289 Z M 221.31996,151.4447 c 3.72171,-3.01366 2.50749,-6.4447 -2.28074,-6.4447 -7.50808,0 -9.38048,8.13917 -1.9902,8.65131 0.7832,0.0542 2.70514,-0.9387 4.27094,-2.20661 z m 191.68483,-5.36738 c 3.97427,-1.8108 5.01131,-6.47087 3.3908,-15.23704 -2.95489,-15.98448 -8.77154,-22.10963 -20.9595,-22.07114 -9.11384,0.0288 -9.6604,0.70944 -7.87142,9.80267 0.83083,4.22301 2.14053,7.66568 2.91047,7.65039 0.76992,-0.0153 2.80611,-1.12777 4.52486,-2.4722 4.31922,-3.37855 6.75495,-3.24587 5.73699,0.3125 -1.87365,6.54955 -2.33712,19.63446 -0.76264,21.5316 1.8648,2.24694 8.61047,2.4971 13.03044,0.48322 z m -8.51077,-7.53672 c -2.47368,-3.53168 -2.59907,-9.63689 -0.2167,-10.55109 2.7795,-1.06658 6.86022,1.75216 7.76699,5.36504 1.60515,6.39542 -4.00444,10.24846 -7.55029,5.18605 z m -26.12923,4.39386 c 1.75348,-2.67615 2.11801,-5.71002 1.8903,-15.73242 C 379.92737,112.77805 378.88164,110 373.77979,110 c -1.99774,0 -3.97989,-0.5625 -4.40479,-1.25 -1.20588,-1.95114 -5.2741,-1.46742 -6.11626,0.72723 -0.41731,1.08748 -0.75874,4.21491 -0.75874,6.94983 0,4.25265 -0.90489,5.92938 -6.25,11.58104 -3.4375,3.63465 -6.25,7.2792 -6.25,8.09899 0,2.18162 17.36495,10.14291 22.12342,10.14291 3.0232,0 4.62727,-0.8521 6.24137,-3.31554 z m -9.4925,-8.12099 c -1.96222,-5.62878 -1.82369,-18.92143 0.19021,-18.25389 0.91776,0.30421 1.90327,3.9221 2.38835,8.76779 0.45422,4.53744 1.19525,9.41375 1.64674,10.83625 1.38591,4.36662 -2.68602,3.06548 -4.2253,-1.35015 z m -137.40822,8.11779 c 4.27413,-3.86802 2.34497,-7.37117 -3.28158,-5.959 -2.21707,0.55645 -3.18249,1.64244 -3.18249,3.57991 0,4.8447 2.65844,5.82314 6.46407,2.37909 z M 86.875,136.25 c 0.424899,-0.6875 -0.08251,-1.25 -1.127586,-1.25 -1.045071,0 -5.007823,-2.53125 -8.806113,-5.625 -3.79829,-3.09375 -7.518712,-5.625 -8.267603,-5.625 C 66.691235,123.75 50,133.85107 50,135.0508 c 0,1.72272 3.786426,2.15381 20.238729,2.3042 9.390565,0.0858 16.178963,-0.36506 16.636271,-1.105 z m -21.566495,-2.6915 c -2.014133,-2.01413 0.338794,-6.0585 3.524706,-6.0585 3.498051,0 4.620509,3.71116 1.755977,5.80576 -2.823869,2.06486 -3.439118,2.09431 -5.280683,0.25274 z m 81.267805,-9.23986 c 5.94646,-1.07771 7.00696,-2.71866 2.79253,-4.32098 -5.06813,-1.9269 -13.07517,-1.56596 -13.9168,0.62734 -1.26694,3.30158 0.57157,5.9501 3.62211,5.21793 1.54046,-0.36973 4.91644,-1.05566 7.50216,-1.52429 z m -19.80355,-0.0774 C 129.89425,123.04344 129.12358,120 125.69878,120 c -3.63579,0 -5.47268,2.33385 -3.04642,3.87061 2.08648,1.32156 1.72672,1.2892 4.1204,0.37065 z M 93.545896,118.1746 C 93.77739,116.13938 92.802831,107.13938 91.38021,98.174602 89.95759,89.209821 87.321215,72.59375 85.521597,61.25 82.697177,43.44648 80.785366,36.297967 79.257099,37.826235 78.181827,38.901506 81.46488,69.4913 83.6272,78.544596 86.078986,88.809842 85.679732,95 82.565857,95 79.886195,95 75.939913,75.069986 74.274312,53.125 73.32237,40.582756 72.249314,37.5 68.83551,37.5 66.536033,37.5 58.75,45.233744 58.75,47.517779 c 0,0.649434 3.150306,4.232101 7.00068,7.961482 6.587591,6.380585 6.941871,7.027493 6.004025,10.963216 -0.994875,4.175052 -1.08714,29.641755 -0.110925,30.617968 0.283394,0.283394 4.388852,1.482602 9.123241,2.664909 7.916045,1.976856 8.640588,2.434396 9.013634,5.692076 0.321099,2.80405 -0.679309,4.57453 -4.799547,8.49402 -6.710938,6.38396 -6.056383,8.87402 2.193643,8.34506 5.562335,-0.35664 5.97769,-0.62275 6.371147,-4.08191 z M 64.583334,51.666666 c -1.6919,-1.691899 -0.762172,-6.616791 1.475171,-7.814181 2.84718,-1.523765 5.191495,0.45807 5.191495,4.388779 0,3.304641 -4.483671,5.608398 -6.666666,3.425402 z M 309.82205,109.0625 c 5.36049,-10.589461 4.1202,-18.069082 -1.84608,-11.132875 -4.39912,5.114305 -5.61088,15.820375 -1.79061,15.820375 0.6951,0 2.33161,-2.10937 3.63669,-4.6875 z M 73.75,110.625 c 0,-1.04167 -1.111111,-1.875 -2.5,-1.875 -2.490304,0 -3.251405,1.33193 -1.666666,2.91667 1.522411,1.52241 4.166666,0.86134 4.166666,-1.04167 z m 325.731,-9.54652 c 0.4832,-0.78183 -0.26765,-2.328709 -1.66855,-3.437499 -1.40091,-1.10879 -3.68111,-4.265981 -5.06711,-7.015981 -2.41945,-4.800466 -2.54796,-4.875291 -3.22024,-1.875 -0.38511,1.71875 -0.85769,4.412906 -1.05016,5.987014 -0.73422,6.004826 -2.86464,3.079366 -3.22209,-4.424514 -0.3167,-6.648585 -0.0574,-7.8125 1.74058,-7.8125 1.84435,0 2.0102,-0.992363 1.30563,-7.8125 -0.89926,-8.704827 -2.16112,-10.236132 -9.38718,-11.391627 -2.63222,-0.420908 -6.2248,-1.897169 -7.98353,-3.280581 -5.89681,-4.638433 -7.34007,-3.060531 -3.86539,4.225972 2.02228,4.240747 1.99762,4.403744 -1.25,8.263315 -1.82212,2.165478 -3.31296,4.643684 -3.31296,5.507122 0,0.863438 2.25453,3.381673 5.01005,5.596075 2.75554,2.214404 7.24915,7.057143 9.98582,10.761641 5.24652,7.101943 4.57412,6.812293 18.36785,7.912203 1.5063,0.12011 3.13408,-0.4213 3.61728,-1.20314 z M 374.0625,81.841219 c -3.48604,-2.457867 -3.67456,-4.858231 -0.3125,-3.979033 3.05113,0.797889 3.30561,-1.037116 0.37155,-2.679102 -1.71316,-0.958731 -1.8309,-1.549675 -0.60344,-3.028678 0.83876,-1.010645 1.17389,-2.752581 0.74472,-3.870971 -1.19064,-3.102771 2.35898,-2.504346 5.59837,0.943819 2.19185,2.333124 2.71226,4.158576 2.40539,8.4375 -0.446,6.21891 -3.26898,7.656009 -8.20409,4.176465 z m 58.97467,19.550891 c 0.8267,-1.33762 -3.44873,-2.601676 -8.87876,-2.625041 -2.46421,-0.01063 -5.48144,-1.29172 -7.96605,-3.382387 -3.85735,-3.245746 -4.06061,-3.281671 -5.72091,-1.011087 -0.9468,1.294826 -1.72145,3.652969 -1.72145,5.240317 0,2.810988 0.3071,2.886088 11.80123,2.886088 6.49067,0 12.10934,-0.49855 12.48595,-1.10789 z M 374.51049,99.472676 C 375.43088,97.074188 372.85307,92.5 370.58102,92.5 c -1.25926,0 -1.83102,1.366149 -1.83102,4.375 0,3.5642 0.47059,4.375 2.53922,4.375 1.39659,0 2.84616,-0.7998 3.22127,-1.777324 z M 101.80412,90.971868 C 104.11075,87.678691 104.37395,79.873949 102.25,77.75 c -0.825,-0.825 -2.804466,-1.5 -4.398815,-1.5 -2.344866,0 -2.787871,0.537455 -2.318245,2.8125 0.319314,1.546875 0.926996,5.484375 1.350406,8.75 0.851972,6.570984 2.010284,7.314674 4.920774,3.159368 z M 160.68617,87.8125 c -1.9218,-13.460971 -2.58397,-14.596762 -12.84665,-22.035074 -5.29878,-3.84053 -9.98511,-6.570951 -10.41402,-6.067604 -1.27494,1.496143 -3.78728,26.936357 -2.75248,27.871753 2.23883,2.023767 16.395,6.068564 21.4064,6.11638 l 5.45444,0.05205 -0.84769,-5.9375 z m -12.42196,-3.52545 c -0.63974,-1.667136 -1.1508,-1.772321 -2.63329,-0.541967 -1.51186,1.254737 -2.02968,1.00152 -2.90736,-1.42172 -2.21796,-6.123762 0.80281,-17.618044 3.0744,-11.698363 0.39574,1.03125 1.48329,1.875 2.4168,1.875 2.46899,0 4.49448,4.515696 4.04763,9.023993 -0.43078,4.346186 -2.77025,5.962956 -3.99818,2.763057 z M 408.08579,61.841849 c 7.57462,-22.788039 8.77415,-27.567344 7.1681,-28.559938 -0.62836,-0.388349 -6.09195,-1.569205 -12.1413,-2.624122 -8.90098,-1.5522 -13.64418,-1.675748 -24.8682,-0.647745 -16.4083,1.502825 -25.87895,3.27372 -28.75516,5.37686 -1.94334,1.421006 -1.9459,1.815852 -0.0365,5.64329 1.88498,3.778545 1.88887,4.296767 0.0474,6.331532 -4.24375,4.689294 2.81546,5.436313 7.46211,0.789655 2.32257,-2.322561 2.90053,-3.887889 2.30768,-6.25 -1.22154,-4.86702 2.79384,-4.033651 5.8957,1.223619 1.41972,2.40625 3.122,4.375 3.78284,4.375 0.66083,0 3.77991,-1.96875 6.93127,-4.375 6.33226,-4.835037 12.80975,-5.77883 17.43363,-2.540139 3.45773,2.421888 5.71125,11.74413 4.69353,19.416005 -1.00171,7.551293 0.50617,22.786448 2.19939,22.222039 0.68344,-0.227814 4.22921,-9.399289 7.8795,-20.381056 z M 401.83146,45.649215 C 400.95465,37.461697 401.48985,33.75 403.54721,33.75 c 1.3389,0 2.66983,7.2695 2.68903,14.6875 0.01,3.763039 -0.50409,5.3125 -1.76175,5.3125 -1.26212,0 -2.02635,-2.34234 -2.64303,-8.100785 z m -32.67783,-8.900371 c -0.88433,-2.304513 2.13869,-4.70652 3.81439,-3.030815 C 374.3324,35.082397 373.0802,38.75 371.25,38.75 c -0.73065,0 -1.67403,-0.90052 -2.09637,-2.001156 z M 319.77915,72.916083 C 319.17096,69.780121 316.25,69.349527 316.25,72.395834 316.25,73.931255 317.05711,75 318.21665,75 c 1.16405,0 1.80172,-0.850463 1.5625,-2.083917 z M 114.0625,66.060336 C 118.91396,63.616601 119.83235,61.582354 117.25,59 c -2.32363,-2.323631 -4.21618,-1.790869 -5.77256,1.625 -0.92356,2.027004 -2.44341,3.125 -4.32564,3.125 -3.86768,0 -5.9018,-2.2403 -5.9018,-6.5 0,-2.623456 -0.60374,-3.5 -2.410714,-3.5 -6.063711,0 -8.535802,9.053484 -3.772682,13.816604 2.16494,2.16494 3.485375,2.432664 8.437496,1.710741 3.229,-0.470725 7.98028,-1.918379 10.5584,-3.217009 z m 270.21026,-8.069072 c 2.37018,-0.90952 2.73908,-8.000597 0.41474,-7.972123 -2.26765,0.02778 -4.12115,1.490728 -5.70639,4.504005 -2.00635,3.813739 0.35609,5.362071 5.29165,3.468118 z M 179.77052,45.841101 C 180.05084,43.473264 179.59569,42.5 178.20802,42.5 c -1.35401,0 -1.95802,1.188937 -1.95802,3.854166 0,4.782458 2.94442,4.35335 3.52052,-0.513065 z M 98.845217,44.029058 c 3.882703,-3.469193 3.883973,-3.474659 2.522343,-10.840414 -1.802314,-9.74959 -4.272461,-13.455279 -8.63333,-12.951619 L 89.375,20.625 l 0,11.25 c 0,16.578985 1.854341,18.958843 9.470217,12.154058 z M 64.290831,32.593005 C 67.547255,28.994699 66.37069,25.625 61.857881,25.625 c -3.235701,0 -3.689281,0.416216 -3.405526,3.125 0.713798,6.814063 2.240361,7.818877 5.838476,3.843005 z M 120.14326,28.09375 c -0.0243,-0.670312 -1.30523,-1.413399 -2.84644,-1.651302 -2.46168,-0.379989 -2.5968,-0.185059 -1.1119,1.604131 1.76273,2.123969 4.03471,2.151042 3.95834,0.04717 z M 265,295.42609 c 0,-1.14065 2.2555,-5.06132 5.01222,-8.71257 5.02864,-6.66038 8.97538,-9.80926 10.44843,-8.33621 2.08695,2.08696 0.14036,6.59119 -5.42814,12.56019 C 268.87454,297.53837 265,299.27186 265,295.42609 Z M 32.75,207.25 c -1.642056,-1.64205 -1.890509,-5.03956 -0.694951,-9.50324 0.651745,-2.43332 1.470311,-2.81977 5.295432,-2.5 4.082782,0.34132 4.56234,0.76923 4.911909,4.38298 0.213065,2.20261 -0.228601,5.15574 -0.981479,6.5625 C 39.768684,209.01786 35.0971,209.5971 32.75,207.25 Z M 15.522369,182.05829 c -1.349764,-3.51743 -0.0125,-7.68329 2.466399,-7.68329 3.358551,0 5.5076,3.76499 3.74586,6.5625 -1.804292,2.86507 -5.300842,3.49591 -6.212259,1.12079 z M 72.5,160.52857 c 0,-5.60433 8.446967,-10.48315 15.723779,-9.08177 4.092789,0.7882 2.188519,2.89347 -6.801375,7.51927 L 72.5,163.55716 l 0,-3.02858 z m 30,-33.08538 c 0,-0.71875 1.44972,-2.75654 3.22159,-4.52842 2.35967,-2.35966 3.59264,-2.85054 4.60845,-1.83473 1.0158,1.0158 0.59723,2.22736 -1.56449,4.52841 -3.02341,3.21826 -6.26555,4.16766 -6.26555,1.83474 z M 157.1216,56.5625 C 153.80694,50.65415 156.20625,45 162.02807,45 c 3.91438,0 7.82159,7.793836 5.38128,10.734221 -1.52408,1.836398 -9.3679,2.467914 -10.28775,0.828279 z"
     id="path4138"
     inkscape:connector-curvature="0" />
</svg>
